<svg xmlns="http://www.w3.org/2000/svg" viewBox="0 0 322.62 143.61"><defs><style>.cls-1{fill:#eae2d9;}.cls-2{fill:#fcb38f;}.cls-3{fill:#de2c0f;}.cls-4{fill:#ff461a;}.cls-5{fill:#243845;}.cls-6{fill:#fd8c66;}.cls-7{fill:#6e30cc;}.cls-8{fill:#512a9f;}.cls-9{fill:#fb9b00;}.cls-10{fill:#ef7c00;}.cls-11{fill:#171a25;}.cls-12{fill:#fff;}</style></defs><title>Step 1</title><g id="Layer_2" data-name="Layer 2"><g id="Layer_1-2" data-name="Layer 1"><ellipse id="Ellipse_229" data-name="Ellipse 229" class="cls-1" cx="155.23" cy="99.65" rx="39.68" ry="8.9"/><path id="Path_271" data-name="Path 271" class="cls-2" d="M132.59,93.91a3.48,3.48,0,0,1-.21,3.66c-.21.33-.49.72-.82,1.22-.94,1.4-4.62,2-5.14,1.6s1.75-1.17,1.75-1.17-6.56,1.51-8.57.72,1.72-3.39,5.42-4.27l5.24-2.53a1.78,1.78,0,0,1,2.32.73Z"/><path id="Path_272" data-name="Path 272" class="cls-3" d="M136.68,37.78S128.24,54.93,127,65.49L128,94.26a19.82,19.82,0,0,0,4.68-.22c.34-7.32,1.78-13.49,2.08-28.58l6.71-15.55a27.08,27.08,0,0,0-4.77-12.13Z"/><path id="Path_273" data-name="Path 273" class="cls-4" d="M150.61,32l-13.93,5.76,6.16,47.74s19.18,2.7,29.06,0V37.78l-13.55-6.06Z"/><path id="Path_274" data-name="Path 274" class="cls-5" d="M140.93,8.32a3.52,3.52,0,0,0-.58,2.25,3.77,3.77,0,0,0,2.49,3.75s.25-2.27.3-4.8Z"/><path id="Path_275" data-name="Path 275" class="cls-5" d="M141.72,10.66s-3.54-4.92,1.48-8c5.63-3.5,9.69-2.92,14.23-1.62,6.91,2,6.56,6.56,7.13,10.1.3,2-2.36,14.64-7.14,14C157.42,25.11,152,8.25,141.72,10.66Z"/><path id="Path_276" data-name="Path 276" class="cls-2" d="M159,32.83a9.68,9.68,0,0,1-9,0,15.48,15.48,0,0,0-.67-6.76,15.48,15.48,0,0,1,3.82-3.26c.75-.3,1.55-.61,2.34-.88a4.62,4.62,0,0,1,4.07,1.3,25.38,25.38,0,0,0-.67,3.58,25.81,25.81,0,0,0,.14,6Z"/><path id="Path_277" data-name="Path 277" class="cls-6" d="M159.54,23.24a24,24,0,0,0-.67,3.58,12.34,12.34,0,0,1-8.89,6,15.48,15.48,0,0,0-.67-6.76,15.48,15.48,0,0,1,3.82-3.26c.75-.3,1.55-.61,2.34-.88A4.62,4.62,0,0,1,159.54,23.24Z"/><path id="Path_278" data-name="Path 278" class="cls-6" d="M143.59,14.15s-2.1-1.93-3.3-.2.2,8.05,4,7.45A18.14,18.14,0,0,0,143.59,14.15Z"/><path id="Path_280" data-name="Path 280" class="cls-2" d="M161.26,19c-.08.29-.15.58-.25.86a1.05,1.05,0,0,1-.06.24l-.28.84c-2,5.63-6,9.46-11.74,8-7.44-1.93-7.6-16.08-7.6-17.14v-.24A6.44,6.44,0,0,1,141.92,9a10.11,10.11,0,0,1,9-6c7.72-.47,10.31,2.92,10.92,5.36L162,9.76A27.13,27.13,0,0,1,161.26,19Z"/><path id="Path_281" data-name="Path 281" class="cls-2" d="M160.18,12.78s2.81-1.7,3.94.1-.77,8-4.49,7.16a13.59,13.59,0,0,1,.55-7.26Z"/><path id="Path_282" data-name="Path 282" class="cls-6" d="M161,20.06l-.28.84a1.87,1.87,0,0,1-1.78-1.14,3.4,3.4,0,0,0,2.06.3Z"/><path id="Path_283" data-name="Path 283" class="cls-5" d="M141.7,8.72s2.22,2.52,9.27,0c3.62-1.28,6.49-1.6,6.87-.67,1.31,3.22-.56,4-.72,7.75l2.24-.05A3.75,3.75,0,0,1,162.08,12s.88-5.79-.84-7.65S143.23-3.3,141.7,8.72Z"/><path id="Path_285" data-name="Path 285" class="cls-5" d="M157.63,13.89s-2.42,11.62-8.34,11.65-6.45-3.75-6.45-3.75,0,3.86,1.83,6.22c2.41,3.07,7.72,3.65,10.31,1.55S159.39,19,159.4,15.81Z"/><path id="Path_286" data-name="Path 286" class="cls-5" d="M141.33,11.76s.83,8.76,2.58,11.08,3,2.48,3,2.48l-3.75-1S141,16.59,140.89,12.7Z"/><path id="Path_287" data-name="Path 287" class="cls-5" d="M143.33,22.24a4.86,4.86,0,0,1,4.09-2.93c3.17-.35,6.61,2.1,6.91,3.4l-1.08,1.14a8.39,8.39,0,0,1-5.16-3.14s-2.66,2.95-4.27,2.93Z"/><path id="Path_288" data-name="Path 288" class="cls-2" d="M188.5,107l.47,4.1a7.9,7.9,0,0,1-4.22.79l-1.07-4A11.39,11.39,0,0,1,188.5,107Z"/><path id="Path_289" data-name="Path 289" class="cls-7" d="M184.2,119.38c.05.41.12.83.17,1.24l19.56-.24a5.31,5.31,0,0,0-.18-1.25,4.82,4.82,0,0,0-2.25-2.87,27.07,27.07,0,0,0-7.43-2.47,34.09,34.09,0,0,0-5.09-3.13c-3.12,1.3-4.89.75-4.89.75C183.31,114.19,183.81,116.84,184.2,119.38Z"/><path id="Path_290" data-name="Path 290" class="cls-8" d="M184.2,119.38c.05.41.12.83.17,1.24l19.56-.24a5.31,5.31,0,0,0-.18-1.25Z"/><path id="Path_291" data-name="Path 291" class="cls-5" d="M161.79,80.73S170.54,59,176,59.89c8.43,1.33,14,26.31,13.18,49.63h-5.57s-6.5-20.74-7.65-26.7c0,0-4.46,15.45-14.49,13.3C154,94.53,158.87,86.93,161.79,80.73Z"/><path id="Path_292" data-name="Path 292" class="cls-7" d="M169.74,114a1.62,1.62,0,0,1,1.5-1,12,12,0,0,1,1.7.09c2.3.23,10.94,4.19,11.94,8.44,1.08,4.63-5.87,3.25-10.62,1.18a17.88,17.88,0,0,1-5.62-3.62,1.5,1.5,0,0,1-.31-1.6Z"/><path id="Path_293" data-name="Path 293" class="cls-2" d="M164.74,116.42l5.62,2a5.69,5.69,0,0,0,1.63-4.13l-5.34-2.88S164.07,114,164.74,116.42Z"/><path id="Path_294" data-name="Path 294" class="cls-5" d="M161.38,81.61s-26-.55-31.92,2.6-8.68,10.71-3,16.21c6.91,6.63,40.2,17.28,40.2,17.28l2.68-5.57S147.45,98.19,141.1,95.66c0,0,10.38,2.61,20.35.47Z"/><path id="Path_295" data-name="Path 295" class="cls-6" d="M158.78,78.2S157.64,82,155.73,82s.93-3.31.93-3.31Z"/><path id="Path_296" data-name="Path 296" class="cls-3" d="M171.94,37.78s8.55,11.3,11.75,22.35a3.34,3.34,0,0,1-.8,3.23,56.14,56.14,0,0,1-22.7,14.13l-1.81-3.06a136.06,136.06,0,0,1,9.92-9.37c4.28-3.44,7.4-6.18,7.4-6.18l-4.76-5.82S166.35,46.62,171.94,37.78Z"/><path id="Path_297" data-name="Path 297" class="cls-2" d="M158.38,74.43s-4.49,2.49-6.39,4.51-2.67,4.46-1.73,5.76,1.63-.12,2.68-1.68,2.43-2.81,3.75-3a6.21,6.21,0,0,0,3.75-2.92Z"/><ellipse id="Ellipse_230" data-name="Ellipse 230" class="cls-1" cx="245.77" cy="136.25" rx="76.85" ry="7.36"/><path id="Path_300" data-name="Path 300" class="cls-2" d="M208.69,75.64s-1.77-2.59-3.05-3.17-3.44,4.47-2.24,6.27a3.62,3.62,0,0,0,3.36,1.49S208.93,79.05,208.69,75.64Z"/><path id="Path_301" data-name="Path 301" class="cls-8" d="M260.79,66.6S247.05,83,241.28,85.7a17.85,17.85,0,0,1-6.89,1.67c-.61,0-2.24-.1-2.32-.11h0a100.24,100.24,0,0,1-25.31-7,6.74,6.74,0,0,0,1.92-4.58A115.15,115.15,0,0,0,222,77.39c2.74.2,9.05.49,11.39.86q.87-.37,1.71-.84c10.1-6.15,17-16.8,17-16.8C255.39,61.82,259.11,64.1,260.79,66.6Z"/><path id="Path_305" data-name="Path 305" class="cls-2" d="M298.14,132.18a4.21,4.21,0,0,0,.71,4.34l1.15,1.34c1.32,1.55,5.75,1.76,6.32,1.26s-2.24-1.17-2.24-1.17,8,.94,10.31-.25-2.48-3.82-7-4.37L300.83,131a2.13,2.13,0,0,0-2.67,1.16Z"/><path id="Path_306" data-name="Path 306" class="cls-2" d="M204.64,120.87l-1.77,4.26a7.72,7.72,0,0,0,4.22.8l2.2-3.64S206.66,120.57,204.64,120.87Z"/><path id="Path_307" data-name="Path 307" class="cls-9" d="M207.66,133.39c-.06.42-.12.84-.17,1.25l-19.56-.23a4.46,4.46,0,0,1,.18-1.26,4.79,4.79,0,0,1,2.24-2.86,27.09,27.09,0,0,1,7.43-2.48,34.6,34.6,0,0,1,5.09-3.13c3.13,1.31,4.9.75,4.9.75C208.55,128.22,208.05,130.82,207.66,133.39Z"/><path id="Path_308" data-name="Path 308" class="cls-10" d="M207.66,133.39c-.06.42-.12.84-.17,1.25l-19.56-.24a4.45,4.45,0,0,1,.18-1.25Z"/><path id="Path_309" data-name="Path 309" class="cls-11" d="M259.86,116.76S241.28,82,229.36,85.93c-8,2.6-26,36.14-26,36.14a9.18,9.18,0,0,0,5.3,1.22s17.74-8.74,22.78-22.21c0,0,10.2,22,27,23.76C259.83,125,263.13,120.25,259.86,116.76Z"/><path id="Path_310" data-name="Path 310" class="cls-7" d="M248.55,109.86a25.68,25.68,0,0,0,6.82,11.91,24,24,0,0,0,9.63,6c5.78,1.87,12.45,1.22,19.07-3.56a244.46,244.46,0,0,0,3.65-48.39l-.32-13.08-10.07-3.4-.54-.18-2.26-.76h0l-1.77-.59-10.57,1.45h-.06l-1.73.23-.61.1-7.61,1C252.07,84.68,253,90.28,248.55,109.86Z"/><path id="Path_311" data-name="Path 311" class="cls-12" d="M255.37,121.77a24,24,0,0,0,9.63,6c-.07-5.49-.07-6.21.05-10.43.42-15.39,7.42-50.15,9.44-59l-1.76-.59-10.58,1.46C257.48,89.69,255.26,112.28,255.37,121.77Z"/><path id="Path_312" data-name="Path 312" class="cls-2" d="M188.08,126.57l-4.74,2a7,7,0,0,0,1.57,3.75l5-1.25S190,127.78,188.08,126.57Z"/><path id="Path_313" data-name="Path 313" class="cls-9" d="M179.25,135.68l-1.18.44-9.14-17.3a4.51,4.51,0,0,1,1.18-.43,4.76,4.76,0,0,1,3.59.6,26.9,26.9,0,0,1,5.73,5.34,34.59,34.59,0,0,1,5.18,3c.35,3.36,1.68,4.68,1.68,4.68C184.22,134,181.66,134.8,179.25,135.68Z"/><path id="Path_314" data-name="Path 314" class="cls-10" d="M179.25,135.68l-1.18.44-9.14-17.3a4.51,4.51,0,0,1,1.18-.43Z"/><path id="Path_315" data-name="Path 315" class="cls-5" d="M284.72,122s-35.82-15.52-49.15-16.36-48.94,20.53-48.94,20.53c0,2.25.31,3.42,1.7,6.15,0,0,25.54-6.56,43.51-15.58,0,0,24,17.47,38.24,19.38C278.7,137.28,285.32,130.14,284.72,122Z"/><path id="Path_316" data-name="Path 316" class="cls-2" d="M272.8,59.21a9.56,9.56,0,0,1-8.9-.94,15.29,15.29,0,0,0,0-6.73A15.62,15.62,0,0,1,268,48.73c.77-.23,1.59-.45,2.4-.63a4.58,4.58,0,0,1,3.88,1.7,23.42,23.42,0,0,0-1,3.47,25.21,25.21,0,0,0-.46,5.94Z"/><path id="Path_317" data-name="Path 317" class="cls-6" d="M274.32,49.8a23.42,23.42,0,0,0-1,3.47,12.19,12.19,0,0,1-9.38,5,15,15,0,0,0,0-6.73A15.62,15.62,0,0,1,268,48.75c.77-.23,1.59-.45,2.4-.63a4.58,4.58,0,0,1,3.9,1.69Z"/><path id="Path_318" data-name="Path 318" class="cls-6" d="M259.53,39.2s-1.88-2.12-3.25-.54-.63,8,3.16,7.76a17.92,17.92,0,0,0,.08-7.22Z"/><path id="Path_320" data-name="Path 320" class="cls-2" d="M276.46,45.76c-.1.28-.22.57-.33.84l-.1.22c-.11.27-.23.54-.36.8-2.55,5.33-6.94,8.71-12.4,6.67-7.14-2.66-5.84-16.64-5.73-17.68v-.25a6.52,6.52,0,0,1,.84-2.38,10,10,0,0,1,9.49-5c7.66.33,9.84,3.92,10.22,6.4v1.36A27,27,0,0,1,276.46,45.76Z"/><path id="Path_321" data-name="Path 321" class="cls-2" d="M276,39.57s3-1.39,3.86.5-1.58,7.83-5.17,6.57a13.55,13.55,0,0,1,1.3-7.07Z"/><path id="Path_322" data-name="Path 322" class="cls-6" d="M276,46.82c-.12.28-.24.54-.37.8A1.87,1.87,0,0,1,274,46.31a3.34,3.34,0,0,0,2,.52Z"/><path id="Path_323" data-name="Path 323" class="cls-5" d="M273.82,36.65c.36,1.35-.65,3.89-.15,5.43l1.25.35A3.76,3.76,0,0,1,278,39s1.46-5.62,0-7.62-17.41-7.76-20.16,3.94a2.8,2.8,0,0,0,2.95-.41c1.49-1.18,3.75-1.26,4.54-.7s3.57,2.28,5.16,1.73S273.54,35.6,273.82,36.65Z"/><path id="Path_324" data-name="Path 324" class="cls-4" d="M279.82,35a15.48,15.48,0,0,0-.26-6.32c-1.81-8-15.22-8.57-19.6-.35C260,28.29,276.82,30.79,279.82,35Z"/><path id="Path_325" data-name="Path 325" class="cls-3" d="M278,39s-3.75-7.86-19.8-5.73a9.71,9.71,0,0,1,1.78-5s15.08,0,19.86,6.67C279.82,35,279.93,38.52,278,39Z"/><path id="Path_326" data-name="Path 326" class="cls-5" d="M257,41.05c0,2.6.47,6.29.42,8.25s-.39,4.22.46,6.18,1.78,2.28,2.57,4.37,6.85,2.22,8.2-.62,2.51-2.39,3.75-4S275,42.43,275,42.43l-1.33-2.35a33.66,33.66,0,0,0-.63,4.69,11.56,11.56,0,0,1-.62,2.77,7.16,7.16,0,0,1-3.26-.88c-1.64-.81-3.56.63-5.37.26s-3.58-2.29-5.45-.68a20.84,20.84,0,0,1-.73-5.82c.29-2.2.86-5.19.86-5.19l-.61.11A29.71,29.71,0,0,0,257,41.05Zm2.09,8a2.37,2.37,0,0,1,1.64-.73c1.75-.2,1.76.72,3.37.93,1.14.13,3.15-.52,3.57-.36a7.08,7.08,0,0,1,3.09,2.31c-.7,1.13-1.51,1.93-2.3,1.88-2.21-.1-3.09-2.11-5-1.18s-2.71-.1-3.69-1.38A6.23,6.23,0,0,1,259,49Z"/><path id="Path_327" data-name="Path 327" class="cls-8" d="M287.4,62.73s11.53,22.09,14.34,34.49l2,34.79a23.51,23.51,0,0,1-5.62.34c-1.35-8.65-2.95-15.75-5.25-33.67l-7.77-19.12S283.24,69.66,287.4,62.73Z"/><ellipse id="Ellipse_231" data-name="Ellipse 231" class="cls-1" cx="76.85" cy="136.25" rx="76.85" ry="7.36"/><path id="Path_328" data-name="Path 328" class="cls-5" d="M48.72,51.05c1.78-7.4.59-15.49-1.87-19.91S35.54,24,29.32,27.25c0,0-7.33,2.5-8,8.65s3.12,9.65.61,13.77A6.79,6.79,0,0,0,19,54.87c-.45,3.83,2.3,7-1.45,9.84S11,70.49,11.93,74.85,16,82,13.07,87.5s2.48,11.25,5.75,11.7S29.58,83.26,38.3,83.26,52.5,67.58,50,60.76,47.9,54.45,48.72,51.05Z"/><path id="Path_329" data-name="Path 329" class="cls-10" d="M52,59.46l1.45,32,2.71,4.69h0c.6-6-.1-17.82-.43-21.29C54.69,63.17,52,59.46,52,59.46Z"/><path id="Path_330" data-name="Path 330" class="cls-9" d="M23.36,66.84c.54,4.37,3.17,19.62,6.17,31.69a88.27,88.27,0,0,0,7.22,23.25s22.36-4.34,27.84-11.06L53.46,91.45l-.4-8.66c1.21-2.07,2.73-5.35,2-7.79-1-3.49-2.53-8.2-2.82-9h0L52,59.5,38.38,58.4Z"/><path id="Path_332" data-name="Path 332" class="cls-10" d="M23.36,66.84A8.11,8.11,0,0,1,29.1,75L23,103.3l.08,28.55a9.45,9.45,0,0,1-5.57-.21l-2.29-29.76,2.81-25.31c.7-3.48,2.57-8.12,5.27-9.73Z"/><path id="Path_333" data-name="Path 333" class="cls-2" d="M32.75,62.44A10,10,0,0,0,42,61.29a15.86,15.86,0,0,1-.19-7,15.86,15.86,0,0,0-4.32-2.82c-.8-.22-1.67-.43-2.51-.6a4.77,4.77,0,0,0-4,1.88,26.11,26.11,0,0,1,1.18,3.53,27.66,27.66,0,0,1,.61,6.15Z"/><path id="Path_334" data-name="Path 334" class="cls-6" d="M31,52.71a26.31,26.31,0,0,1,1.18,3.58,12.63,12.63,0,0,0,9.85,5,15.86,15.86,0,0,1-.19-7,16,16,0,0,0-4.32-2.81c-.81-.23-1.67-.43-2.51-.6a4.72,4.72,0,0,0-4,1.82Z"/><path id="Path_335" data-name="Path 335" class="cls-6" d="M46.08,41.38s2.23-2.15,3.53-.42c1.6,2.15.66,8-3.28,7.9A18.67,18.67,0,0,1,46.08,41.38Z"/><path id="Path_337" data-name="Path 337" class="cls-2" d="M48.32,44.66c-.19,4.69-1.34,10.69-5.79,12.46-5.62,2.24-10.25-1.17-13-6.64-.14-.27-.27-.55-.39-.83a2.29,2.29,0,0,1-.1-.23c-.13-.28-.25-.56-.37-.85a27.78,27.78,0,0,1-1.73-7c-.09-.77-.14-1.54-.17-2.3V37.83c.35-2.58,2.52-6.35,10.46-6.88a10.4,10.4,0,0,1,8.59,3.18l.11.12a10.36,10.36,0,0,1,1.27,1.67,6.74,6.74,0,0,1,.93,2.46v.25a37.92,37.92,0,0,1,.21,6Z"/><path id="Path_338" data-name="Path 338" class="cls-5" d="M48.32,44.66c-.84-1.25-.34-3.75-1.53-6a10.08,10.08,0,0,1-.93-4.35,10.08,10.08,0,0,1,1.26,1.66,6.83,6.83,0,0,1,.94,2.46v.25a39.21,39.21,0,0,1,.26,6Z"/><path id="Path_339" data-name="Path 339" class="cls-5" d="M45.76,34.13C43.41,38,37,43.51,37,43.51a11.62,11.62,0,0,1-5.22,2.4,3.36,3.36,0,0,1-2.81-2.36,3,3,0,0,0-2-1.87V41.6c-.08-.77-.14-1.53-.17-2.3V37.88c.35-2.58,2.52-6.35,10.46-6.88A10.42,10.42,0,0,1,45.76,34.13Z"/><path id="Path_340" data-name="Path 340" class="cls-2" d="M29,42.12s-3.12-1.38-4,.61,1.81,8.09,5.5,6.73A14.12,14.12,0,0,0,29,42.12Z"/><path id="Path_341" data-name="Path 341" class="cls-6" d="M29.12,49.65c.12.28.25.56.39.83a2,2,0,0,0,1.67-1.41,3.43,3.43,0,0,1-2.06.58Z"/><path id="Path_342" data-name="Path 342" class="cls-2" d="M117.23,120.66,119,125a7.87,7.87,0,0,1-4.24.8l-2.22-3.67S115.23,120.36,117.23,120.66Z"/><path id="Path_343" data-name="Path 343" class="cls-4" d="M114.2,133.25c.07.42.14.85.18,1.26l19.69-.25a4.89,4.89,0,0,0-2.44-4.13,27.12,27.12,0,0,0-7.5-2.49,34,34,0,0,0-5.12-3.15c-3.14,1.32-4.92.75-4.92.75C113.31,128,113.83,130.71,114.2,133.25Z"/><path id="Path_344" data-name="Path 344" class="cls-3" d="M114.2,133.25c.07.42.14.85.18,1.26l19.69-.25a4.85,4.85,0,0,0-.19-1.25Z"/><path id="Path_345" data-name="Path 345" class="cls-11" d="M61.73,116.53s18.69-34.92,30.67-31c8,2.62,26.1,36.33,26.1,36.33a9.29,9.29,0,0,1-5.33,1.24s-17.33-10.94-22.4-24.48c0,0-10.76,24.25-27.69,26C61.78,124.79,58.44,120,61.73,116.53Z"/><path id="Path_346" data-name="Path 346" class="cls-2" d="M133.89,126.39l4.77,2a7,7,0,0,1-1.57,3.75l-5-1.26S131.93,127.61,133.89,126.39Z"/><path id="Path_347" data-name="Path 347" class="cls-4" d="M142.76,135.51l1.18.45,9.22-17.32a5.2,5.2,0,0,0-1.19-.45,4.91,4.91,0,0,0-3.61.61,27.8,27.8,0,0,0-5.77,5.38,33.22,33.22,0,0,0-5.21,3c-.35,3.38-1.69,4.68-1.69,4.68C137.77,133.84,140.36,134.67,142.76,135.51Z"/><path id="Path_348" data-name="Path 348" class="cls-3" d="M142.76,135.51l1.18.45,9.22-17.32a5.2,5.2,0,0,0-1.19-.45Z"/><path id="Path_349" data-name="Path 349" class="cls-5" d="M36.75,121.78s36-15.6,49.41-16.46S135.36,126,135.36,126c0,2.26-.32,3.44-1.71,6.18,0,0-25.68-6.61-43.74-15.65,0,0-24.15,17.55-38.43,19.48C42.81,137.16,36.15,130,36.75,121.78Z"/><rect id="Rectangle_1483" data-name="Rectangle 1483" class="cls-5" x="71.74" y="108.96" width="3.53" height="1.58"/></g></g></svg>