<svg xmlns="http://www.w3.org/2000/svg" viewBox="0 0 227.21 200.93"><defs><style>.cls-1{fill:#eae2d9;}.cls-2{fill:#de2c0f;}.cls-3{fill:#ff461a;}.cls-4{fill:#fcb38f;}.cls-5{fill:#512a9f;}.cls-6{fill:#fb9b00;}.cls-7{fill:#ef7c00;}.cls-8{fill:#171a25;}.cls-9{fill:#6e30cc;}.cls-10{fill:#fff;}.cls-11{fill:#243845;}.cls-12{fill:#fd8c66;}</style></defs><title>Step 3</title><g id="Layer_2" data-name="Layer 2"><g id="Layer_1-2" data-name="Layer 1"><ellipse id="Ellipse_232" data-name="Ellipse 232" class="cls-1" cx="113.6" cy="191.16" rx="113.6" ry="9.77"/><circle id="Ellipse_233" data-name="Ellipse 233" class="cls-1" cx="106.38" cy="79.23" r="79.23"/><path id="Path_352" data-name="Path 352" class="cls-2" d="M172.87,193.76a2.64,2.64,0,0,1-2.61-2.49l-2.3-46a2.63,2.63,0,1,1,5.25-.26l2.32,46a2.64,2.64,0,0,1-2.5,2.76Z"/><path id="Path_353" data-name="Path 353" class="cls-2" d="M151,182.49A2.63,2.63,0,0,1,148.4,180L146,131.76a2.64,2.64,0,1,1,5.26-.48c0,.07,0,.14,0,.21l2.41,48.23a2.61,2.61,0,0,1-2.48,2.76H151Z"/><path id="Path_354" data-name="Path 354" class="cls-2" d="M211.15,193.84a2.63,2.63,0,0,1-2.63-2.51l-2.77-57.21a2.64,2.64,0,0,1,5.27-.26l2.76,57.22a2.63,2.63,0,0,1-2.49,2.76h-.14Z"/><path id="Path_355" data-name="Path 355" class="cls-2" d="M192.54,188.16a2.63,2.63,0,0,1-2.63-2.5l-2.77-57.21a2.64,2.64,0,0,1,5.26-.48c0,.07,0,.15,0,.22l2.77,57.21a2.64,2.64,0,0,1-2.51,2.76Z"/><path id="Path_356" data-name="Path 356" class="cls-3" d="M214.84,139.28s-17.3,14.05-38.92,14.42c0,0-28-6.2-29.16-20.89l20.31-12c-1.36-8.26-1.27-32.15,5-51.6,0,0,24.77-2.81,43.38,3.83C215.44,73.09,230.83,114.38,214.84,139.28Z"/><path id="Path_357" data-name="Path 357" class="cls-4" d="M132.23,94.75s-3.14-.65-4.5-.16.63,5.73,2.81,6.21a3.71,3.71,0,0,0,3.53-1.3S134.78,97.09,132.23,94.75Z"/><path id="Path_358" data-name="Path 358" class="cls-5" d="M156.74,51.68C154.19,60,154.21,72.55,153,77.26a14.22,14.22,0,0,1-.66,1.83c-2,1.39-6.91,4.69-9.12,6.42-6.08,4.74-11,9.24-11,9.24a6.86,6.86,0,0,1,1.84,4.75A62.6,62.6,0,0,0,157.7,86.72h0c.07-.06,1.35-1.11,1.8-1.57A18.57,18.57,0,0,0,163.38,79c1.11-3,1.39-12.87,1.31-19Z"/><path id="Path_362" data-name="Path 362" class="cls-4" d="M136.51,169.31l-.22,6.09a8.34,8.34,0,0,0,4.77.2l1.17-6S138.8,167.84,136.51,169.31Z"/><path id="Path_363" data-name="Path 363" class="cls-6" d="M141.8,183.36c0,.51-.09,1-.12,1.5l-23.12,1a5.63,5.63,0,0,1,.13-1.48,5.73,5.73,0,0,1,2.45-3.54,32.79,32.79,0,0,1,8.62-3.44,40.1,40.1,0,0,1,5.8-4c3.77,1.34,5.82.56,5.82.56C142.54,177.19,142.08,180.4,141.8,183.36Z"/><path id="Path_364" data-name="Path 364" class="cls-7" d="M141.8,183.36c0,.51-.09,1-.12,1.5l-23.12,1a5.63,5.63,0,0,1,.13-1.48Z"/><path id="Path_365" data-name="Path 365" class="cls-8" d="M197.9,104.18s-42.28.17-57.76,2.81-4.71,63.82-4.71,63.82a12.06,12.06,0,0,0,7.11.26s8.13-40,5.47-50.76c0,0,26.06,9.24,40.31,6C198.33,124,202.26,112.82,197.9,104.18Z"/><path id="Path_366" data-name="Path 366" class="cls-9" d="M165.7,105.4c2.27,4.69,5.64,13,10.4,16.09a28.25,28.25,0,0,0,12.66,4.43c7.14.64,11.2-2.82,17.62-10-3.85-23.21-4.26-37-7.53-55l-5-15.77-8.34-1.33-.67-.08-2.8-.3h0l-2.22-.23-11.86,4.38h0l-1.94.71-.67.25-8.53,3.16C162.81,79.49,164.9,79.62,165.7,105.4Z"/><path id="Path_367" data-name="Path 367" class="cls-10" d="M176.1,121.49a28.29,28.29,0,0,0,12.66,4.43c-1.49-6.32-1.67-7.15-2.62-12C182.69,96,181.89,54,182,43.36l-2.21-.24L167.9,47.5C170.34,83.93,173.59,110.54,176.1,121.49Z"/><path id="Path_368" data-name="Path 368" class="cls-4" d="M148,176.53l-.24,6.1a8.34,8.34,0,0,0,4.77.2l1.18-6S150.3,175.06,148,176.53Z"/><path id="Path_369" data-name="Path 369" class="cls-6" d="M153.25,190.58c0,.5-.08,1-.12,1.49L130,193.17a5.71,5.71,0,0,1,.13-1.48,5.63,5.63,0,0,1,2.46-3.54,32.05,32.05,0,0,1,8.6-3.44,40.9,40.9,0,0,1,5.8-4c3.77,1.33,5.82.55,5.82.55C154,184.4,153.53,187.56,153.25,190.58Z"/><path id="Path_370" data-name="Path 370" class="cls-7" d="M153.25,190.58c0,.5-.08,1-.12,1.48L130,193.17a5.71,5.71,0,0,1,.13-1.48Z"/><path id="Path_371" data-name="Path 371" class="cls-11" d="M205.66,111.42s-38.59.15-54.07,2.79-4.7,63.8-4.7,63.8a12.09,12.09,0,0,0,7.12.28s8.12-40,5.46-50.77c0,0,24.71,7,39,3.74C208.45,129,210,120.07,205.66,111.42Z"/><path id="Path_372" data-name="Path 372" class="cls-11" d="M155.7,21v.2a8.44,8.44,0,0,0,3.67,5.09,51.78,51.78,0,0,0-.35-5.71Z"/><path id="Path_373" data-name="Path 373" class="cls-11" d="M157.56,22.13s-6.66-3-4.79-9.75,8.57-3,14-4.23,12.54-1,15.27,3.23C184.43,15,185.64,34,179.87,34,179.91,34,169.28,17.75,157.56,22.13Z"/><path id="Path_374" data-name="Path 374" class="cls-4" d="M181.23,45.71a11.47,11.47,0,0,1-10.64,1.35,18.2,18.2,0,0,0-1.79-7.87,18.28,18.28,0,0,1,4-4.44c.84-.48,1.74-1,2.63-1.39a5.55,5.55,0,0,1,5,.94,29.65,29.65,0,0,0-.26,4.32A31.47,31.47,0,0,0,181.23,45.71Z"/><path id="Path_375" data-name="Path 375" class="cls-12" d="M180.44,34.32a29.74,29.74,0,0,0-.26,4.32,14.63,14.63,0,0,1-9.59,8.42,18.2,18.2,0,0,0-1.79-7.87,18.28,18.28,0,0,1,4-4.44c.84-.48,1.74-1,2.63-1.39A5.56,5.56,0,0,1,180.44,34.32Z"/><path id="Path_376" data-name="Path 376" class="cls-12" d="M160.28,26s-2.76-2-3.93.25,1.43,9.46,5.8,8.19A21.73,21.73,0,0,0,160.29,26Z"/><path id="Path_378" data-name="Path 378" class="cls-4" d="M181.84,29a10.56,10.56,0,0,1-.15,1.11.45.45,0,0,1-.06.28c-.07.35-.13.7-.21,1.05-1.52,6.9-5.72,12-12.65,11.15-9.06-1.17-11.36-17.84-11.52-19.08a.71.71,0,0,1,0-.29,8.12,8.12,0,0,1,.33-3,12,12,0,0,1,9.73-8.4c9-1.7,12.55,1.91,13.68,4.69l.35,1.61A32.46,32.46,0,0,1,181.84,29Z"/><path id="Path_379" data-name="Path 379" class="cls-4" d="M179.65,21.89s3.1-2.43,4.65-.46.29,9.56-4.23,9.1a16.17,16.17,0,0,1-.42-8.64Z"/><path id="Path_380" data-name="Path 380" class="cls-12" d="M181.63,30.36c-.07.35-.13.7-.21,1.05a2.32,2.32,0,0,1-2.22-1.11,4,4,0,0,0,2.43.06Z"/><path id="Path_381" data-name="Path 381" class="cls-11" d="M157.2,22s7.21.66,11.92-2.87c3.66-2.73,7.24-1.17,7.15,0a13,13,0,0,0,1.31,6.38l1.55.07a4.45,4.45,0,0,1,2.65-4.78s.18-7-2.12-8.87S157.22,7.55,157.2,22Z"/><path id="Path_382" data-name="Path 382" class="cls-5" d="M190.91,60.14s3.74,10.7,8,19.77a242.82,242.82,0,0,0-12.51,21.89l3.6,4.36s16.79-18.54,19.43-26.27c-3.08-14.59-9.88-27.62-15.63-34.8C191.22,46.47,188.33,53.38,190.91,60.14Z"/><path id="Path_383" data-name="Path 383" class="cls-4" d="M186.43,101.8s-3-.62-4.52,0-2.82,2.49-3.56,3.4-.53,2.62,1.34,1.58,1.74-.43,1.88.15-3.48,4.15-4.3,6.37,3.4,3,6.8.69,6-7.83,6-7.83Z"/><path id="Path_384" data-name="Path 384" class="cls-5" d="M53.83,193.76a2.63,2.63,0,0,0,2.63-2.49l2.31-46a2.63,2.63,0,1,0-5.26-.26l-2.32,46a2.64,2.64,0,0,0,2.5,2.76Z"/><path id="Path_385" data-name="Path 385" class="cls-5" d="M75.62,182.49A2.63,2.63,0,0,0,78.25,180l2.43-48.22a2.64,2.64,0,0,0-5.26-.48c0,.07,0,.14,0,.21L73,179.72a2.61,2.61,0,0,0,2.48,2.76h.14Z"/><path id="Path_386" data-name="Path 386" class="cls-5" d="M15.5,193.84a2.63,2.63,0,0,0,2.63-2.51l2.77-57.21a2.64,2.64,0,0,0-5.27-.26l-2.76,57.22a2.63,2.63,0,0,0,2.49,2.76h.14Z"/><path id="Path_387" data-name="Path 387" class="cls-5" d="M34.11,188.16a2.63,2.63,0,0,0,2.63-2.5l2.76-57.21a2.63,2.63,0,1,0-5.26-.25l-2.77,57.2a2.64,2.64,0,0,0,2.5,2.76Z"/><path id="Path_388" data-name="Path 388" class="cls-9" d="M11.81,139.28s17.3,14.05,38.92,14.42c0,0,28-6.2,29.16-20.89l-20.31-12c1.36-8.26,1.27-32.15-5-51.6,0,0-24.77-2.81-43.38,3.83C11.21,73.09-4.18,114.38,11.81,139.28Z"/><path id="Path_389" data-name="Path 389" class="cls-7" d="M67.45,51s-.72,21.5,0,31.16l12.44,24.07-5.4,1.1C69.16,102.88,61.53,94,59,83.13,59,83.15,57.68,60.23,67.45,51Z"/><path id="Path_390" data-name="Path 390" class="cls-4" d="M89.56,169.31l.23,6.09a8.3,8.3,0,0,1-4.76.2l-1.18-6S87.29,167.84,89.56,169.31Z"/><path id="Path_391" data-name="Path 391" class="cls-3" d="M84.27,183.36c.06.51.09,1,.12,1.5l23.12,1a5.24,5.24,0,0,0-.13-1.48,5.66,5.66,0,0,0-2.45-3.54,32.52,32.52,0,0,0-8.6-3.44,40.9,40.9,0,0,0-5.8-4c-3.77,1.34-5.83.56-5.83.56C83.59,177.19,84,180.4,84.27,183.36Z"/><path id="Path_392" data-name="Path 392" class="cls-2" d="M84.27,183.36c.06.51.09,1,.12,1.5l23.12,1a5.24,5.24,0,0,0-.13-1.48Z"/><path id="Path_393" data-name="Path 393" class="cls-8" d="M28.18,104.18S70.46,104.35,86,107s4.7,63.82,4.7,63.82a12.1,12.1,0,0,1-7.12.26s-8.12-40-5.46-50.76c0,0-26.06,9.24-40.32,6C27.74,124,23.82,112.82,28.18,104.18Z"/><path id="Path_394" data-name="Path 394" class="cls-6" d="M60.38,105.4c-2.22,4.69-5.65,13-10.4,16.09a28.25,28.25,0,0,1-12.66,4.43c-7.14.64-11.21-2.81-17.63-10,2.85-17.13,3.82-29.13,5.45-41.5A134.53,134.53,0,0,1,30.3,51.22l2-6.11,8.32-1.33.68-.08,2.81-.3h0l2.21-.23,11.85,4.38h.06l1.93.71.69.25L67.46,51C61.38,78.8,61.18,79.62,60.38,105.4Z"/><path id="Path_395" data-name="Path 395" class="cls-4" d="M78.11,176.53l.22,6.1a8.34,8.34,0,0,1-4.77.2l-1.17-6S75.83,175.06,78.11,176.53Z"/><path id="Path_396" data-name="Path 396" class="cls-3" d="M72.82,190.58c0,.5.09,1,.12,1.49l23.12,1.1a5.7,5.7,0,0,0-2.58-5,32,32,0,0,0-8.62-3.44,40.9,40.9,0,0,0-5.8-4c-3.77,1.33-5.82.55-5.82.55C72.13,184.4,72.54,187.56,72.82,190.58Z"/><path id="Path_397" data-name="Path 397" class="cls-2" d="M72.82,190.58c0,.5.09,1,.12,1.48l23.12,1.11a5.63,5.63,0,0,0-.13-1.48Z"/><path id="Path_398" data-name="Path 398" class="cls-11" d="M20.41,111.42s38.59.15,54.08,2.79,4.7,63.8,4.7,63.8a12.09,12.09,0,0,1-7.12.28s-8.12-40-5.45-50.77c0,0-24.73,7-39,3.74C17.63,129,16.06,120.07,20.41,111.42Z"/><path id="Path_399" data-name="Path 399" class="cls-11" d="M70,19.62a4.18,4.18,0,0,1,.41,2.71,4.43,4.43,0,0,1-3.33,4.09s0-2.69.2-5.67Z"/><path id="Path_400" data-name="Path 400" class="cls-11" d="M68.76,22.24s4.76-5.38-.79-9.63C61.74,7.83,56.88,8,51.41,9c-8.36,1.5-8.53,7-9.57,11.09-.59,2.3,1.11,17.5,6.75,17.32C48.59,37.36,57,18.19,68.76,22.24Z"/><path id="Path_401" data-name="Path 401" class="cls-4" d="M45.83,46.29A11.46,11.46,0,0,0,56.45,47.4,18.11,18.11,0,0,1,58,39.52a18.36,18.36,0,0,0-4.11-4.28c-.85-.46-1.75-.9-2.66-1.31a5.45,5.45,0,0,0-4.93,1,29.46,29.46,0,0,1,.36,4.3A31.29,31.29,0,0,1,45.83,46.29Z"/><path id="Path_402" data-name="Path 402" class="cls-12" d="M46.33,34.94a28.14,28.14,0,0,1,.36,4.3,14.65,14.65,0,0,0,9.76,8.13A18,18,0,0,1,58,39.48a18.8,18.8,0,0,0-4.12-4.28c-.85-.45-1.75-.9-2.66-1.3a5.39,5.39,0,0,0-4.93,1Z"/><path id="Path_403" data-name="Path 403" class="cls-12" d="M66.15,26.12s2.7-2,3.93.15-1.19,9.44-5.55,8.29a21.64,21.64,0,0,1,1.62-8.44Z"/><path id="Path_405" data-name="Path 405" class="cls-4" d="M44.8,29.71a5.89,5.89,0,0,0,.19,1.1.58.58,0,0,0,0,.29c.07.35.15.69.23,1C47,39,51.28,44,58.16,42.89c9-1.4,10.82-18,11-19.27a1.41,1.41,0,0,0,0-.29,7.91,7.91,0,0,0-.41-3,12,12,0,0,0-9.9-8.12c-9-1.45-12.43,2.22-13.48,5L45,18.86A32.14,32.14,0,0,0,44.8,29.71Z"/><path id="Path_406" data-name="Path 406" class="cls-4" d="M46.79,22.58s-3.14-2.34-4.63-.35,0,9.53,4.43,8.94a16.06,16.06,0,0,0,.2-8.59Z"/><path id="Path_407" data-name="Path 407" class="cls-12" d="M45,31.05c.07.34.15.69.23,1A2.22,2.22,0,0,0,47.49,31,4,4,0,0,1,45,31.05Z"/><path id="Path_408" data-name="Path 408" class="cls-11" d="M69,20s-2.92,2.69-10.92-1.11c-4.1-1.93-7.44-2.63-8-1.6-1.93,3.65.18,4.77-.06,9.22l-2.64-.34a4.44,4.44,0,0,0-2.76-4.69s-.36-6.9,1.88-8.87S68.63,5.63,69,20Z"/><path id="Path_409" data-name="Path 409" class="cls-11" d="M38,8.46A8,8,0,1,0,41.16,3.2,8,8,0,0,0,38,8.46Z"/><path id="Path_410" data-name="Path 410" class="cls-11" d="M49.66,24.16s1.49,14,8.47,14.7,8-3.7,8-3.7-.43,4.54-2.88,7.11c-3.19,3.33-9.51,3.33-12.29.61S47,30,47.4,26.18Z"/><path id="Path_411" data-name="Path 411" class="cls-11" d="M69.11,23.56s-2,10.2-4.34,12.73S61,38.87,61,38.87l4.54-.75s3.46-8.87,4-13.43Z"/><path id="Path_412" data-name="Path 412" class="cls-11" d="M65.51,35.67a5.72,5.72,0,0,0-4.44-3.93c-3.69-.78-8,1.7-8.53,3.2l1.1,1.47a9.88,9.88,0,0,0,6.44-3.1s2.79,3.78,4.69,3.95Z"/><path id="Path_413" data-name="Path 413" class="cls-7" d="M32.26,45.12a14.91,14.91,0,0,0-7.77,11.51c-.84,6.44,8.09,32.26,17.08,41.68,0,0,25.16-6,32.33-10l-1.18-6.09s-20,1.23-28.12,2.34C44.62,84.54,32,45.86,32.26,45.12Z"/><rect id="Rectangle_1488" data-name="Rectangle 1488" class="cls-11" x="73.89" y="81.23" width="10.99" height="5.38" transform="translate(-10.79 11.72) rotate(-7.91)"/><path id="Path_416" data-name="Path 416" class="cls-4" d="M72.74,82.2s-1.51-5.21.43-5.83,3.06-.45,3.49.81S74.88,79.12,75.39,80s7.4-2.58,9,.1,2.51,6,0,7-10.48,1.23-10.48,1.23Z"/></g></g></svg>