<svg xmlns="http://www.w3.org/2000/svg" viewBox="0 0 231.54 212.21"><defs><style>.cls-1{fill:#eae2d9;}.cls-2{fill:#ef7c00;}.cls-3{fill:#fcb38f;}.cls-4{fill:#6e30cc;}.cls-5{fill:#512a9f;}.cls-6{fill:#171a25;}.cls-7{fill:#fb9b00;}.cls-8{fill:#243845;}.cls-9{fill:#fd8c66;}.cls-10{fill:#ff461a;}.cls-11{fill:#de2c0f;}.cls-12{fill:#fff;}</style></defs><title>Step 2</title><g id="Layer_2" data-name="Layer 2"><g id="Layer_1-2" data-name="Layer 1"><ellipse id="Ellipse_227" data-name="Ellipse 227" class="cls-1" cx="113.58" cy="204.44" rx="110.54" ry="7.77"/><circle id="Ellipse_228" data-name="Ellipse 228" class="cls-1" cx="107.86" cy="89.64" r="70.76"/><path id="Path_199" data-name="Path 199" class="cls-2" d="M177.59,40.41s12,18.51,13.56,23.56c0,0,17.88,2.37,24.94,3.57V72.2s-19.57,1-26.24.29a42.61,42.61,0,0,1-12.18-13.28S175.58,48.42,177.59,40.41Z"/><path id="Path_200" data-name="Path 200" class="cls-3" d="M216,67.51a10.14,10.14,0,0,1,2.41-1.92c1.56-1.06,5.58-.17,5.94.41s-2.28.5-2.28.5,7.36,1.09,9.13,2.73-3.15,2.8-7.32,2.2l-7.77.77a5.47,5.47,0,0,1-.11-4.69Z"/><path id="Path_201" data-name="Path 201" class="cls-3" d="M142.73,186l-2.9,4.5a6.46,6.46,0,0,1-4.05-3L138.6,183S141.52,183.92,142.73,186Z"/><path id="Path_202" data-name="Path 202" class="cls-4" d="M149.56,204.44h-9.17l-9.07-8.5c.13-.3.24-.6.36-.91l.12-.3c1-2.48,1.86-5.12,4-7.23,0,0,1.31,1.41,4.78,1.83,0,0,2.28,5.84,2.14,7.92,0,0,4.38,1.67,6.22,4.76a5.16,5.16,0,0,1,.69,1.34A2.51,2.51,0,0,1,149.56,204.44Z"/><path id="Path_203" data-name="Path 203" class="cls-5" d="M149.56,204.44h-9.17l-9.07-8.5c.13-.3.24-.6.36-.91l9.29,8.32h8.66A2.37,2.37,0,0,1,149.56,204.44Z"/><path id="Path_204" data-name="Path 204" class="cls-6" d="M178.15,102.66l-14.63,52.81-20.45,32.21-6.35-4.61,10-23.08c2-4.55,7.13-9.29,7.13-9.29L156.43,126l3-22.64Z"/><path id="Path_205" data-name="Path 205" class="cls-7" d="M178.15,102.66s-1.9.24-4.8.48c-1.49.13-3.26.27-5.18.38-2.19.13-4.59.23-7,.25-1.77,0-3.56,0-5.28-.09-4.95-.24-9.52-1-11.88-2.57l2.08-24.68-2.34-35,10.15-3.57,1.26-.43a12.68,12.68,0,0,0,1.49.3,25,25,0,0,0,9.12-.34H166a24.12,24.12,0,0,1,2.68.29c2.91.4,7.2,1.25,9,2.67,0,0,1.9,22.21.55,37.39C178.65,85.32,177.44,93.87,178.15,102.66Z"/><path id="Path_206" data-name="Path 206" class="cls-3" d="M197.24,186.47l2.26,4.87a7.34,7.34,0,0,1-3.63,2.08l-3.33-4.17S194.83,186.21,197.24,186.47Z"/><path id="Path_207" data-name="Path 207" class="cls-4" d="M198.41,199.74c.24.38.47.74.69,1.11l18.38-8.54a5,5,0,0,0-.7-1.11,5,5,0,0,0-3.33-1.75,28.19,28.19,0,0,0-8.08.82,35.33,35.33,0,0,0-6.15-.79c-2.38,2.55-4.3,2.79-4.3,2.79C195.37,195.23,197,197.51,198.41,199.74Z"/><path id="Path_208" data-name="Path 208" class="cls-5" d="M198.41,199.74c.24.38.47.74.69,1.11l18.38-8.54a5,5,0,0,0-.7-1.11Z"/><path id="Path_209" data-name="Path 209" class="cls-8" d="M144,101.08s.77,11.29,8.68,26.14c4.87,9.14,16,22.36,16,22.36s5.32,12.11,10.48,20.22c3,4.75,13.62,20.79,13.62,20.79l5.06-3.43-19.71-45.08-16-38.32C156.66,104.05,150.37,102.67,144,101.08Z"/><path id="Path_210" data-name="Path 210" class="cls-3" d="M166.56,38.42a10.15,10.15,0,0,1-9.46.13,16,16,0,0,0-.79-7.06,16.42,16.42,0,0,1,4-3.47l2.44-1a4.82,4.82,0,0,1,4.28,1.3,25.5,25.5,0,0,0-.65,3.76A27.38,27.38,0,0,0,166.56,38.42Z"/><path id="Path_211" data-name="Path 211" class="cls-9" d="M166.93,28.37a25,25,0,0,0-.65,3.76,12.87,12.87,0,0,1-9.23,6.42,16,16,0,0,0-.79-7.06,16.19,16.19,0,0,1,4-3.47c.79-.34,1.62-.66,2.45-1A4.81,4.81,0,0,1,166.93,28.37Z"/><path id="Path_212" data-name="Path 212" class="cls-9" d="M150.11,19.07s-2.22-2-3.47-.15.33,8.41,4.28,7.74a19.23,19.23,0,0,0-.8-7.58Z"/><path id="Path_214" data-name="Path 214" class="cls-3" d="M168.67,23.88c-.07.3-.14.61-.23.91a2.17,2.17,0,0,1-.07.24c-.09.3-.19.6-.29.89-2,5.94-6.2,10-12.18,8.52-7.82-1.91-8.18-16.72-8.2-17.82a1.22,1.22,0,0,1,0-.27,7,7,0,0,1,.59-2.59,10.52,10.52,0,0,1,9.36-6.42c8.07-.6,10.8,2.91,11.51,5.45l.16,1.44a28.5,28.5,0,0,1-.65,9.65Z"/><path id="Path_215" data-name="Path 215" class="cls-3" d="M167.47,17.42s3-1.83,4.1,0-.68,8.4-4.59,7.56A14.29,14.29,0,0,1,167.47,17.42Z"/><path id="Path_216" data-name="Path 216" class="cls-9" d="M168.37,25c-.09.3-.19.6-.29.89a2,2,0,0,1-1.88-1.17A3.52,3.52,0,0,0,168.37,25Z"/><path id="Path_217" data-name="Path 217" class="cls-8" d="M164.78,14.63c.55,1.38-.2,4.16.53,5.71l1.33.22a4,4,0,0,1,2.8-4s.84-6.06-1-8-19.2-5.94-20.64,6.62a3,3,0,0,0,3-.79c1.41-1.43,3.75-1.79,4.68-1.3s4,2,5.61,1.17S164.37,13.57,164.78,14.63Z"/><path id="Path_218" data-name="Path 218" class="cls-10" d="M170.87,12.13a16.15,16.15,0,0,0-1.06-6.6c-2.89-8.18-17-7.11-20.6,2.06C149.21,7.58,167.24,8.12,170.87,12.13Z"/><path id="Path_219" data-name="Path 219" class="cls-11" d="M169.44,16.63S164.49,8.84,148,13.07a10.29,10.29,0,0,1,1.24-5.49s15.84-1.88,21.66,4.55C170.87,12.13,171.41,15.84,169.44,16.63Z"/><path id="Path_220" data-name="Path 220" class="cls-8" d="M147.64,21.33c.28,2.73,1.28,6.53,1.47,8.59s.1,4.48,1.24,6.43,2.15,2.18,3.24,4.26,7.46,1.49,8.52-1.66,2.35-2.82,3.44-4.69,1.1-13.7,1.1-13.7L165,18.26a34.9,34.9,0,0,0-.08,5,12.38,12.38,0,0,1-.3,3,7.5,7.5,0,0,1-3.54-.52c-1.82-.65-3.65,1.1-5.6.93s-4-2-5.79,0a21.5,21.5,0,0,1-1.48-6c0-2.34.25-5.55.25-5.55l-.62.2a32.19,32.19,0,0,0-.17,6Zm3.19,8.11a2.49,2.49,0,0,1,1.62-1c1.82-.43,2,.54,3.64.53,1.22,0,3.25-.93,3.7-.82a7.55,7.55,0,0,1,3.53,2c-.6,1.28-1.34,2.22-2.18,2.27-2.33.16-3.5-1.83-5.4-.63s-2.85.24-4-1a5.56,5.56,0,0,1-.88-1.41Z"/><path id="Path_221" data-name="Path 221" class="cls-2" d="M149.45,54.37a138.87,138.87,0,0,1-3.37,18.56A213,213,0,0,1,160.55,90.2l-2.47,4.4s-17-12.69-20.59-19.06a108.44,108.44,0,0,1,6.23-34.06C146.22,42.25,150.65,48,149.45,54.37Z"/><path id="Path_222" data-name="Path 222" class="cls-3" d="M159.63,90.32a10.11,10.11,0,0,1,3-.63c1.86-.25,5,2.36,5.11,3s-2.2-.55-2.2-.55,6.07,4.28,6.93,6.54-4.07,1.09-7.53-1.34l-6.33-2.44a1.37,1.37,0,0,1-.83-1.63A6.33,6.33,0,0,1,159.63,90.32Z"/><path id="Path_223" data-name="Path 223" class="cls-5" d="M128,40.41s5.07,20,6.61,38c1,11.64-8.39,29.12-8.39,29.12L127,102s.48-13.27.24-24.41S128,40.41,128,40.41Z"/><path id="Path_224" data-name="Path 224" class="cls-3" d="M93.13,186l-2.89,4.5a6.41,6.41,0,0,1-4-3L89,183A8.48,8.48,0,0,1,93.13,186Z"/><path id="Path_225" data-name="Path 225" class="cls-10" d="M100,204.44H90.78l-9.06-8.5c.11-.3.24-.6.35-.91,0-.1.09-.21.13-.3,1-2.48,1.86-5.12,4-7.23,0,0,1.31,1.41,4.79,1.83,0,0,2.27,5.84,2.14,7.92,0,0,4.38,1.67,6.21,4.76a5.52,5.52,0,0,1,.7,1.34A2.51,2.51,0,0,1,100,204.44Z"/><path id="Path_226" data-name="Path 226" class="cls-11" d="M100,204.44H90.78l-9.06-8.5c.11-.3.24-.6.35-.91l9.29,8.32H100a2.56,2.56,0,0,1-.08,1.1Z"/><path id="Path_227" data-name="Path 227" class="cls-6" d="M128.53,102.66,113.9,155.47,93.45,187.68l-6.34-4.61s8-18.52,10-23.08,7.11-9.29,7.11-9.29L106.82,126l3-22.64Z"/><path id="Path_228" data-name="Path 228" class="cls-4" d="M128.54,102.66s-1.9.24-4.8.48c-1.49.13-3.25.27-5.17.38-2.2.13-4.59.23-7,.25-1.77,0-3.56,0-5.28-.09-5-.24-9.53-1-11.88-2.57L96.5,76.43l-2.36-35,10.16-3.58,1.26-.43a12.79,12.79,0,0,0,1.49.33,25,25,0,0,0,9.12-.33h.18a26.94,26.94,0,0,1,2.69.28c2.9.41,7.2,1.26,9,2.68,0,0,1,21.9-.37,37.07C128.13,85,127.84,93.87,128.54,102.66Z"/><path id="Path_229" data-name="Path 229" class="cls-12" d="M123.74,103.14c-1.49.13-3.25.27-5.17.38-2.2.13-4.59.23-7,.25.33-11.46-.67-40.72-4.56-66a25,25,0,0,0,9.12-.33h.18a24.28,24.28,0,0,1,2.69.28C120.65,51.07,124,81.19,123.74,103.14Z"/><path id="Path_230" data-name="Path 230" class="cls-8" d="M98.61,13.47v.18a7.47,7.47,0,0,0,2.68,5s.27-2.42.33-5.1Z"/><path id="Path_231" data-name="Path 231" class="cls-8" d="M100.12,14.72S94.53,11.31,97,5.53s7.92-1.66,12.87-2.14S121.06,3.92,123,8c1.66,3.45.6,20.47-4.47,19.8C118.58,27.75,111,12.17,100.12,14.72Z"/><path id="Path_232" data-name="Path 232" class="cls-3" d="M118.42,38.27a10.25,10.25,0,0,1-9.57,0,16.18,16.18,0,0,0-.7-7.18,16.57,16.57,0,0,1,4.06-3.45c.8-.33,1.64-.65,2.49-.93A4.88,4.88,0,0,1,119,28.09a26,26,0,0,0-.73,3.8,28.35,28.35,0,0,0,.13,6.38Z"/><path id="Path_233" data-name="Path 233" class="cls-9" d="M119,28.09a26,26,0,0,0-.72,3.8,13.08,13.08,0,0,1-9.44,6.38,16.18,16.18,0,0,0-.7-7.18,16.57,16.57,0,0,1,4.06-3.45c.8-.33,1.64-.65,2.49-.93a4.88,4.88,0,0,1,4.32,1.38Z"/><path id="Path_234" data-name="Path 234" class="cls-9" d="M102.1,18.42s-2.22-2.05-3.52-.22.21,8.55,4.22,7.92A19.65,19.65,0,0,0,102.1,18.42Z"/><path id="Path_236" data-name="Path 236" class="cls-3" d="M120.84,23.56l-.26.92-.07.24-.3.9c-2.13,5.94-6.44,10-12.48,8.45-7.92-2.06-8-17.07-8-18.19a1.22,1.22,0,0,1,0-.27,7,7,0,0,1,.64-2.62,10.7,10.7,0,0,1,9.55-6.36c8.2-.47,10.89,3.11,11.59,5.7l.13,1.46a29,29,0,0,1-.76,9.77Z"/><path id="Path_237" data-name="Path 237" class="cls-3" d="M119.71,17s3-1.8,4.17.11-.82,8.5-4.78,7.59a14.51,14.51,0,0,1,.6-7.7Z"/><path id="Path_238" data-name="Path 238" class="cls-9" d="M120.51,24.72l-.3.9a2,2,0,0,1-1.89-1.22,3.52,3.52,0,0,0,2.19.32Z"/><path id="Path_239" data-name="Path 239" class="cls-8" d="M99.82,14.52s6.31,1.4,10.89-1.19c3.55-2,6.55-.22,6.33.8a11.43,11.43,0,0,0,.45,5.8l1.35.24a4,4,0,0,1,2.89-4s.94-6.13-.88-8.11S101.46,1.77,99.82,14.52Z"/><path id="Path_240" data-name="Path 240" class="cls-3" d="M147.6,186.47l2.27,4.87a7.34,7.34,0,0,1-3.63,2.08l-3.33-4.17S145.23,186.21,147.6,186.47Z"/><path id="Path_241" data-name="Path 241" class="cls-10" d="M148.8,199.74l.7,1.11,18.38-8.54a5.33,5.33,0,0,0-.7-1.11,5,5,0,0,0-3.35-1.75,28.19,28.19,0,0,0-8.08.82,35.1,35.1,0,0,0-6.13-.79c-2.4,2.55-4.31,2.79-4.31,2.79C145.77,195.23,147.36,197.51,148.8,199.74Z"/><path id="Path_242" data-name="Path 242" class="cls-11" d="M148.8,199.74l.7,1.11,18.38-8.54a5.33,5.33,0,0,0-.7-1.11Z"/><path id="Path_243" data-name="Path 243" class="cls-8" d="M94.39,101.08s.78,11.29,8.69,26.14c4.87,9.14,16,22.36,16,22.36a185.48,185.48,0,0,0,10.48,20.22c3,4.75,13.62,20.79,13.62,20.79l5.07-3.43-19.72-45.08-16-38.32C107.06,104.05,100.76,102.67,94.39,101.08Z"/><path id="Path_244" data-name="Path 244" class="cls-5" d="M94.11,41.45S85.67,61.37,83.13,71,95,105.1,95,105.1l3.29-4L93,74s6.84-14,7.13-23.63C100.31,43.81,97.76,42.73,94.11,41.45Z"/><path id="Path_245" data-name="Path 245" class="cls-3" d="M98.32,101.08s2.68,1.55,3.22,3.32c0,0-3,4.38-4.55,4.62l-2-4Z"/><path id="Path_246" data-name="Path 246" class="cls-8" d="M60.64,27.09c.54-7.82.72-11.07-2.19-17-2.28-4.7-10-9-16.82-6.4,0,0-7.82,1.62-9.3,7.81s2,10.28-1.15,14.17c0,0-6.33,2.16-6,7.42s2.36,9.36-.9,11.25-6.73,3-5.72,8.2,4,9.79-2.72,12.87S5.92,72.18,9.44,78,20.06,76.53,23,89.79c2.55,11.32,21,.92,25.32-8.48s4.95.93,12.38-4.63S65,63.23,67.8,57.11C74.56,42.25,59.54,43.18,60.64,27.09Z"/><path id="Path_247" data-name="Path 247" class="cls-3" d="M26.76,186l-2.88,4.5a6.44,6.44,0,0,1-4.05-3L22.65,183S25.55,183.92,26.76,186Z"/><path id="Path_248" data-name="Path 248" class="cls-7" d="M33.59,204.44H24.42l-9.07-8.5.36-.91a.81.81,0,0,1,.13-.3c1-2.48,1.85-5.12,4-7.23,0,0,1.31,1.41,4.79,1.83,0,0,2.27,5.84,2.13,7.92,0,0,4.39,1.67,6.21,4.76a5.19,5.19,0,0,1,.7,1.34,2.56,2.56,0,0,1,0,1.1Z"/><path id="Path_249" data-name="Path 249" class="cls-2" d="M33.59,204.44H24.42l-9.07-8.5.36-.91L25,203.35h8.66A2.51,2.51,0,0,1,33.59,204.44Z"/><path id="Path_250" data-name="Path 250" class="cls-6" d="M60.64,102.71c-1.72,13.56-6,35.36-13.07,52.76L27.1,187.68l-6.35-4.61s8-18.52,10-23.08,7.13-9.29,7.13-9.29L40.46,126l3-22.64Z"/><path id="Path_251" data-name="Path 251" class="cls-3" d="M81.24,186.47l2.26,4.87a7.34,7.34,0,0,1-3.63,2.08l-3.32-4.17S78.86,186.21,81.24,186.47Z"/><path id="Path_252" data-name="Path 252" class="cls-7" d="M82.42,199.74c.24.38.47.74.69,1.11l18.38-8.54a4.93,4.93,0,0,0-4-2.86,28.15,28.15,0,0,0-8.07.82,35.34,35.34,0,0,0-6.14-.79c-2.4,2.55-4.31,2.79-4.31,2.79C79.45,195.23,81,197.51,82.42,199.74Z"/><path id="Path_253" data-name="Path 253" class="cls-2" d="M82.42,199.74c.24.38.47.74.69,1.11l18.38-8.54a4.61,4.61,0,0,0-.7-1.11Z"/><path id="Path_254" data-name="Path 254" class="cls-8" d="M31.05,102.66s-1.18,9.9,4.48,21.55c4.52,9.33,17.19,25.38,17.19,25.38S58,161.7,63.21,169.81c3,4.75,13.61,20.79,13.61,20.79l5.07-3.43-19.71-45L47,103.77Z"/><path id="Path_255" data-name="Path 255" class="cls-3" d="M63.71,44.29s7.46,19.33,9.9,24.88c0,0-.54,6.38-4.78,5.81-3.24-4-6.23-11.05-8.28-17.56C60.52,57.42,60.83,48.69,63.71,44.29Z"/><path id="Path_256" data-name="Path 256" class="cls-3" d="M67.57,71.39s1.79-7.3,4.4-12,4.67-9.27,4.67-9.27l5.87.53S76,72.1,73.31,74.44,68.13,76.28,67.57,71.39Z"/><path id="Path_257" data-name="Path 257" class="cls-3" d="M76.63,50.18a6.33,6.33,0,0,1-.23-4.27c.49-1.81,4.13-3.73,4.79-3.52s-1.41,1.85-1.41,1.85,6.32-4,8.73-3.83-.59,4.16-4.16,6.4l-1.85,3.9S78.2,52.63,76.63,50.18Z"/><path id="Path_258" data-name="Path 258" class="cls-10" d="M56.76,76.34l5.42,29.18c-7.49,2.76-32.67.12-32.67.12.71-9,3.38-22.86,3.9-30.6-4.95-18.31-4.79-29.7-4.79-29.7,2-1.58,7.32-5.17,10.39-5.84,1.35-.29,2.25-.46,2.25-.46,6.72,1.42,9.29.55,9.29.55l.6.21,12.6,4.43Z"/><path id="Path_259" data-name="Path 259" class="cls-3" d="M51.11,39.85c-.43,1.77-1.67,5.22-5.11,5.52-3.89.36-6.34-4.31-7-5.82l2.25-.45c3,0,8.11-.13,9.29.54Z"/><path id="Path_260" data-name="Path 260" class="cls-3" d="M40.58,40.07a10.27,10.27,0,0,0,9.58,0,16.49,16.49,0,0,1,.7-7.18,16.44,16.44,0,0,0-4.08-3.44c-.8-.33-1.65-.65-2.49-.93A4.9,4.9,0,0,0,40,29.89a26,26,0,0,1,.73,3.8A28.35,28.35,0,0,1,40.58,40.07Z"/><path id="Path_261" data-name="Path 261" class="cls-9" d="M40,29.89a26,26,0,0,1,.73,3.8,13.07,13.07,0,0,0,9.43,6.39,16.48,16.48,0,0,1,.7-7.18,16.48,16.48,0,0,0-4.08-3.45c-.8-.33-1.65-.65-2.49-.93A4.87,4.87,0,0,0,40,29.89Z"/><path id="Path_263" data-name="Path 263" class="cls-3" d="M59.34,17.7c0,.29,0,1.52-.17,3.22-.09.88-.21,1.9-.39,3-.79,4.78-2.74,10.76-7.51,12-6,1.57-10.34-2.53-12.46-8.47l-.3-.9a.36.36,0,0,0-.07-.24c-.1-.3-.18-.61-.27-.93a29,29,0,0,1-.87-7.42,14.49,14.49,0,0,1,.13-2.37s.13-1.44.14-1.47c.68-2.58,3.4-6.16,11.59-5.68a10.68,10.68,0,0,1,8.36,4.35l.1.14a10.29,10.29,0,0,1,1,1.9,7.27,7.27,0,0,1,.65,2.63,1.24,1.24,0,0,1,0,.27Z"/><path id="Path_264" data-name="Path 264" class="cls-8" d="M59.34,17.7c0,.29,0,1.52-.17,3.22-.35-1-.73-2.19-1.16-3.43a10.06,10.06,0,0,1-.34-4.56,11.15,11.15,0,0,1,1,1.87,7.27,7.27,0,0,1,.65,2.63,1.24,1.24,0,0,1,0,.27Z"/><path id="Path_265" data-name="Path 265" class="cls-8" d="M57.52,12.79c-2.89,3.65-10.18,8.42-10.18,8.42A12,12,0,0,1,41.69,23c-.88,0-2.14-1.09-2.55-2.79a3.11,3.11,0,0,0-1.8-2.17V18a14.49,14.49,0,0,1,.13-2.37s.13-1.43.14-1.46C38.29,11.54,41,8,49.19,8.44a10.72,10.72,0,0,1,8.34,4.35Z"/><path id="Path_266" data-name="Path 266" class="cls-3" d="M39.32,18.8s-3-1.8-4.18.12.82,8.5,4.78,7.58a14.62,14.62,0,0,0-.6-7.7Z"/><path id="Path_267" data-name="Path 267" class="cls-9" d="M38.51,26.52l.3.9A2,2,0,0,0,40.7,26.2a3.53,3.53,0,0,1-2.19.32Z"/><path id="Path_268" data-name="Path 268" class="cls-3" d="M28.82,45,17.33,71.63s.6,6.93,5.23,6.36c3.56-4.3,6.05-10.89,8.29-18C30.85,60,31.94,49.83,28.82,45Z"/><path id="Path_269" data-name="Path 269" class="cls-3" d="M23.93,74.08s-2-8-4.83-13.12S14,50.8,14,50.8l-6.43.58s7.12,23.48,10.1,26S23.29,79.42,23.93,74.08Z"/><path id="Path_270" data-name="Path 270" class="cls-3" d="M14,50.8a6.91,6.91,0,0,0,.26-4.68C13.68,44.14,9.7,42,9,42.25s1.56,2,1.56,2S3.6,40,1,40.08s.65,4.56,4.56,7l2,4.27S12.26,53.48,14,50.8Z"/></g></g></svg>